<?xml version="1.0" encoding="UTF-8" standalone="no"?>
<!-- Created with Inkscape (http://www.inkscape.org/) -->

<svg
   xmlns:dc="http://purl.org/dc/elements/1.1/"
   xmlns:cc="http://creativecommons.org/ns#"
   xmlns:rdf="http://www.w3.org/1999/02/22-rdf-syntax-ns#"
   xmlns:svg="http://www.w3.org/2000/svg"
   xmlns="http://www.w3.org/2000/svg"
   xmlns:sodipodi="http://sodipodi.sourceforge.net/DTD/sodipodi-0.dtd"
   xmlns:inkscape="http://www.inkscape.org/namespaces/inkscape"
   version="1.1"
   id="svg9354"
   width="20"
   height="20"
   viewBox="0 0 20 20"
   sodipodi:docname="dir.svg"
   inkscape:version="0.92.4 (5da689c313, 2019-01-14)">
  <metadata
     id="metadata9360">
    <rdf:RDF>
      <cc:Work
         rdf:about="">
        <dc:format>image/svg+xml</dc:format>
        <dc:type
           rdf:resource="http://purl.org/dc/dcmitype/StillImage" />
        <dc:title></dc:title>
      </cc:Work>
    </rdf:RDF>
  </metadata>
  <defs
     id="defs9358">
    <symbol
       id="Shelter">
      <title
         id="title12760">Shelter</title>
      <path
         d="m 12.5,61 51.5,0 0,-5.5 -46,0 0,-20 46,-21 0,-5.5 -57,26 0,5.5 5.5,-2.5 z"
         style="stroke:none"
         id="path12762" />
    </symbol>
    <symbol
       id="blank">
      <title
         id="title13111">Blank</title>
      <rect
         x="1"
         y="1"
         width="70"
         height="70"
         rx="6"
         style="fill:none;stroke:black;stroke-width:2"
         id="rect13113" />
    </symbol>
    <clipPath
       clipPathUnits="userSpaceOnUse"
       id="clipPath15822">
      <rect
         style="fill:#504416;fill-opacity:1"
         id="rect15824"
         width="80.169106"
         height="194.34935"
         x="363.19034"
         y="-258.16251"
         rx="2.95137" />
    </clipPath>
  </defs>
  <sodipodi:namedview
     pagecolor="#ffffff"
     bordercolor="#666666"
     borderopacity="1"
     objecttolerance="10"
     gridtolerance="10"
     guidetolerance="10"
     inkscape:pageopacity="0"
     inkscape:pageshadow="2"
     inkscape:window-width="1920"
     inkscape:window-height="1001"
     id="namedview9356"
     showgrid="false"
     inkscape:zoom="26.344313"
     inkscape:cx="16.679241"
     inkscape:cy="6.2551608"
     inkscape:window-x="-9"
     inkscape:window-y="-9"
     inkscape:window-maximized="1"
     inkscape:current-layer="svg9354" />
  <path
     style="fill:#aad400;stroke-width:1"
     d=""
     id="path9364"
     inkscape:connector-curvature="0" />
  <path
     inkscape:connector-curvature="0"
     id="path15796"
     d="M 3.4708217,17.479838 C 3.022652,17.456151 2.9040606,17.434165 2.7975532,17.35502 2.5192521,17.148217 2.5332277,17.493971 2.5158843,10.386666 L 2.5000003,3.8774266 2.6087471,3.7158534 C 2.6685575,3.6269877 2.7691025,3.5281321 2.8321801,3.4961735 2.9214546,3.4509427 3.914,3.4378284 7.3115046,3.4369907 l 4.3646374,-0.00108 0.38432,-0.2756614 c 1.99539,-1.4312298 4.755768,-0.424939 5.356236,1.9526053 0.08308,0.3289449 0.09469,0.4795648 0.07497,0.9721174 -0.02969,0.7412458 -0.141585,1.1010149 -0.574043,1.8456294 L 16.59797,8.4809903 16.56648,12.293271 c -0.01732,2.096754 -0.04866,4.047252 -0.06965,4.334442 -0.03535,0.483744 -0.04761,0.531632 -0.166701,0.650877 -0.119943,0.120098 -0.165013,0.131325 -0.673269,0.167704 -0.641577,0.04592 -11.3919176,0.07551 -12.1860313,0.03354 z"
     style="fill:#88aa00;stroke-width:1"
     sodipodi:nodetypes="ccscccscsssscsssscc" />
  <path
     inkscape:connector-curvature="0"
     id="path15794"
     d="M 2.9280002,17.416307 C 2.8410102,17.385787 2.7260904,17.301754 2.6726226,17.229565 L 2.5754092,17.098314 2.5631747,10.498865 C 2.5523305,4.6493947 2.5590144,3.8837811 2.6220007,3.7618267 2.7731003,3.4692612 2.5391223,3.4831881 7.3033803,3.4831881 h 4.3379087 l 0.342452,-0.24965 c 0.699923,-0.5102476 1.241597,-0.6919535 2.083665,-0.6989704 0.654549,-0.00545 0.902777,0.051943 1.529628,0.3536945 0.420606,0.2024698 0.538099,0.2866849 0.886098,0.6351259 0.331724,0.332144 0.439001,0.478165 0.619518,0.8432522 0.265987,0.5379485 0.346672,0.8263075 0.383719,1.3713719 0.03283,0.4829694 -0.0508,1.0175217 -0.227857,1.4564175 -0.06156,0.1526116 -0.261491,0.5477837 -0.444281,0.8781605 l -0.332345,0.6006845 v 3.6347803 c 0,2.871888 -0.01215,3.63478 -0.05789,3.63478 -0.03184,0 -1.275054,-1.218572 -2.762695,-2.707937 l -2.704802,-2.707937 -0.661513,0.662351 -0.6615119,0.662352 2.7344909,2.738255 c 1.986452,1.989186 2.726688,2.758618 2.705964,2.812691 -0.02596,0.06774 -0.566491,0.0742 -6.0081446,0.07181 -4.5077866,-0.002 -6.0185477,-0.01628 -6.1377812,-0.05811 z M 7.4899751,9.154251 C 7.8442601,9.0209951 8.2025666,8.7252119 8.3919027,8.4097067 8.5743492,8.1056822 8.6322754,7.9231158 8.6671762,7.5421287 8.6923616,7.2672005 8.687124,7.2476979 8.5516828,7.1120849 L 8.4098075,6.9700296 H 7.782962 c -0.6066321,0 -0.631452,0.00388 -0.7697047,0.1203606 -0.1140349,0.096076 -0.1428596,0.1565262 -0.1428596,0.2996006 0,0.2771514 0.1462798,0.4151475 0.4759311,0.4489797 0.3194757,0.032788 0.3514467,0.1207832 0.1160808,0.3194974 C 7.2525216,8.3356717 7.05038,8.4114306 6.7906325,8.4102362 5.8932413,8.4061078 5.4690998,7.321207 6.1112047,6.6723412 6.3624692,6.4184312 6.7566594,6.3447292 7.2116835,6.466584 7.3904855,6.5144667 7.433818,6.5100315 7.5710092,6.4298062 7.9030165,6.2356575 7.8536585,5.8246733 7.4774049,5.6503972 7.3048852,5.5704881 7.1780099,5.5523547 6.8007492,5.5536876 6.1691263,5.5559191 5.9018737,5.6624212 5.4784058,6.0806525 5.0558146,6.4980186 4.9473557,6.7692024 4.9450949,7.4141072 c -0.00157,0.4483348 0.00548,0.4817425 0.1735204,0.8221821 0.2552481,0.5171144 0.7313662,0.9006209 1.2575128,1.0129084 0.2946849,0.06289 0.8112875,0.018854 1.113847,-0.094947 z"
     style="fill:#668000;stroke-width:1" />
  <path
     inkscape:connector-curvature="0"
     id="path15792"
     d="M 2.9090446,17.407308 C 2.8324801,17.381738 2.7260904,17.301754 2.6726226,17.229565 L 2.5754092,17.098314 2.5631719,10.519938 C 2.5521327,4.5856083 2.5581661,3.9263033 2.6248001,3.7857041 2.7754897,3.4677479 2.5352554,3.4831881 7.3315977,3.4831881 h 4.3242633 l 0.335167,-0.2506128 c 0.673024,-0.5032368 1.231467,-0.6909669 2.076378,-0.6980076 0.603511,-0.00503 0.887916,0.051738 1.375413,0.2745335 0.833185,0.3807812 1.378002,0.9258805 1.7576,1.7585108 0.21995,0.4824487 0.27889,0.7750064 0.277943,1.3796107 -0.0013,0.8029169 -0.111897,1.1470049 -0.708035,2.201966 -1.627879,2.8807923 -2.272951,3.9619613 -2.425702,4.0655863 -0.183929,0.124774 -0.406889,0.115315 -0.594905,-0.02524 -0.06101,-0.0456 -0.457379,-0.684614 -0.880831,-1.420021 -0.423452,-0.735407 -0.784748,-1.3315013 -0.802879,-1.324655 -0.07876,0.029738 -2.4561061,2.375032 -2.4561061,2.422989 0,0.02926 1.2266511,1.281539 2.7258901,2.782843 1.49924,1.501303 2.71602,2.739525 2.703957,2.751603 -0.04643,0.04649 -11.9917447,0.05142 -12.1307064,0.005 z"
     style="fill:#aad400;stroke-width:1"
     sodipodi:nodetypes="sccscscsssscsccsssscs" />
  <path
     inkscape:connector-curvature="0"
     id="path15778"
     d="m 9.5634716,14.714692 c 0,-2.035773 -0.013234,-2.673788 -0.055754,-2.687979 -0.041631,-0.0139 -0.04039,-0.02812 0.0049,-0.05614 0.042441,-0.02626 0.8678214,0.770214 2.7488274,2.652568 1.478497,1.479555 2.688175,2.706036 2.688175,2.725512 0,0.01948 -1.211884,0.03541 -2.693074,0.03541 H 9.5634716 Z m -5.4325802,2.605326 c 0,-0.0097 0.036565,-0.04627 0.081256,-0.08136 0.073644,-0.05783 0.075287,-0.05618 0.017531,0.01755 -0.060657,0.07744 -0.098787,0.10207 -0.098787,0.06381 z m 1.0447269,-1.051745 c 0.099748,-0.10228 0.1918073,-0.185965 0.2045762,-0.185965 0.012769,0 -0.058396,0.08368 -0.1581438,0.185965 -0.099748,0.102281 -0.1918073,0.185965 -0.2045762,0.185965 -0.012769,0 0.058396,-0.08368 0.1581438,-0.185965 z M 2.6450576,9.919913 c 0,-6.5299463 -0.013868,-6.1947544 0.2606244,-6.2992485 0.071379,-0.027173 1.7973947,-0.044494 4.4337451,-0.044494 h 4.3168659 l 0.305998,-0.2348323 c 0.621215,-0.4767395 1.172443,-0.6854605 1.920222,-0.7270882 0.623314,-0.034699 1.133004,0.061388 1.647511,0.3105878 1.236034,0.5986688 1.938748,1.8047924 1.868014,3.2062186 -0.04503,0.8921521 0.03346,0.7313227 -2.559345,5.2440206 -0.224048,0.389948 -0.452104,0.740376 -0.506791,0.778728 -0.125003,0.08767 -0.324703,0.08929 -0.487355,0.004 -0.09103,-0.04776 -0.339673,-0.438087 -0.907514,-1.42465 C 12.506861,9.9857297 12.134386,9.3510883 12.109312,9.3227928 12.084237,9.2944969 11.851149,8.900899 11.591338,8.4481298 11.331527,7.9953604 11.103771,7.6187815 11.085213,7.6112876 c -0.01856,-0.0075 -1.9000166,1.8535768 -4.1810201,4.1357144 -2.2810034,2.282138 -4.1724466,4.149342 -4.2032071,4.149342 -0.043326,0 -0.055928,-1.346659 -0.055928,-5.976431 z"
     style="fill:#445500;stroke-width:1"
     sodipodi:nodetypes="sccssscssccssssssssscsssssscscscsss" />
  <ellipse
     style="fill:#aad400;fill-opacity:1;stroke-width:1"
     id="path15816"
     cx="14.101604"
     cy="6.0074825"
     rx="1.7631555"
     ry="1.8523163" />
  <ellipse
     ry="39.842281"
     rx="37.972599"
     cy="-180.66502"
     cx="441.2475"
     id="ellipse15818"
     style="fill:#668000;fill-opacity:1;stroke-width:21.52307892"
     clip-path="url(#clipPath15822)"
     transform="matrix(0.04643231,0,0,0.04649122,-6.3301361,14.44333)" />
  <path
     style="fill:#445500;stroke:#aad400;stroke-width:0.1;stroke-linecap:butt;stroke-linejoin:miter;stroke-opacity:1;stroke-miterlimit:4;stroke-dasharray:none"
     d="m 11.655176,3.5761705 c 0,0 -0.773622,0.3531069 -0.870901,1.8213819 -0.09728,1.468275 0.340478,2.2024123 0.340478,2.2024123"
     id="path15832"
     inkscape:connector-curvature="0" />
  <text
     xml:space="preserve"
     style="font-style:normal;font-variant:normal;font-weight:normal;font-stretch:normal;font-size:4.25084066px;line-height:1.25;font-family:Verdana;-inkscape-font-specification:Verdana;letter-spacing:0px;word-spacing:0px;fill:#ffffff;fill-opacity:1;stroke:none;stroke-width:0.99999988"
     x="3.2125471"
     y="8.220727"
     id="text16641"
     transform="scale(1.0608024,0.94268261)"><tspan
       sodipodi:role="line"
       id="tspan16639"
       x="3.2125471"
       y="8.220727"
       style="stroke-width:0.99999988">PE</tspan></text>
</svg>
