<?xml version="1.0" encoding="UTF-8" standalone="no"?>
<!-- Created with Inkscape (http://www.inkscape.org/) -->

<svg
   xmlns:dc="http://purl.org/dc/elements/1.1/"
   xmlns:cc="http://creativecommons.org/ns#"
   xmlns:rdf="http://www.w3.org/1999/02/22-rdf-syntax-ns#"
   xmlns:svg="http://www.w3.org/2000/svg"
   xmlns="http://www.w3.org/2000/svg"
   xmlns:sodipodi="http://sodipodi.sourceforge.net/DTD/sodipodi-0.dtd"
   xmlns:inkscape="http://www.inkscape.org/namespaces/inkscape"
   width="41.029888mm"
   height="25.123339mm"
   viewBox="0 0 41.029888 25.123339"
   version="1.1"
   id="svg8"
   inkscape:version="0.92.4 (5da689c313, 2019-01-14)"
   sodipodi:docname="logo2.svg">
  <defs
     id="defs2">
    <inkscape:perspective
       sodipodi:type="inkscape:persp3d"
       inkscape:vp_x="-29.584676 : 238.39008 : 1"
       inkscape:vp_y="29.219856 : 776.05445 : 0"
       inkscape:vp_z="236.02828 : 105.95025 : 1"
       inkscape:persp3d-origin="101.77542 : 133.75546 : 1"
       id="perspective14" />
  </defs>
  <sodipodi:namedview
     id="base"
     pagecolor="#ffffff"
     bordercolor="#666666"
     borderopacity="1.0"
     inkscape:pageopacity="0.0"
     inkscape:pageshadow="2"
     inkscape:zoom="3.959798"
     inkscape:cx="88.811243"
     inkscape:cy="70.616848"
     inkscape:document-units="mm"
     inkscape:current-layer="layer1"
     showgrid="false"
     showguides="true"
     inkscape:snap-center="false"
     inkscape:snap-text-baseline="true"
     inkscape:guide-bbox="true"
     inkscape:window-width="1920"
     inkscape:window-height="1001"
     inkscape:window-x="-9"
     inkscape:window-y="-9"
     inkscape:window-maximized="1"
     borderlayer="false"
     fit-margin-top="0"
     fit-margin-left="0"
     fit-margin-right="0"
     fit-margin-bottom="0" />
  <metadata
     id="metadata5">
    <rdf:RDF>
      <cc:Work
         rdf:about="">
        <dc:format>image/svg+xml</dc:format>
        <dc:type
           rdf:resource="http://purl.org/dc/dcmitype/StillImage" />
        <dc:title />
      </cc:Work>
    </rdf:RDF>
  </metadata>
  <g
     inkscape:label="Capa 1"
     inkscape:groupmode="layer"
     id="layer1"
     transform="translate(-11.22532,-11.021601)">
    <g
       id="g84"
       transform="translate(-2.8286421e-7,-3.7875948e-6)">
      <text
         xml:space="preserve"
         style="font-style:normal;font-variant:normal;font-weight:normal;font-stretch:condensed;font-size:18.34169197px;line-height:1.25;font-family:'Agency FB';-inkscape-font-specification:'Agency FB, Condensed';font-variant-ligatures:normal;font-variant-caps:normal;font-variant-numeric:normal;font-feature-settings:normal;text-align:start;letter-spacing:0px;word-spacing:0px;writing-mode:lr-tb;text-anchor:start;fill:#eef4d7;fill-opacity:1;stroke:none;stroke-width:0.45853984;image-rendering:optimizeQuality"
         x="16.918751"
         y="27.893196"
         id="text74"
         transform="scale(1.1905312,0.83996119)"><tspan
           sodipodi:role="line"
           id="tspan72"
           x="16.918751"
           y="27.893196"
           style="font-style:normal;font-variant:normal;font-weight:normal;font-stretch:condensed;font-size:18.34169197px;font-family:'Agency FB';-inkscape-font-specification:'Agency FB, Condensed';font-variant-ligatures:normal;font-variant-caps:normal;font-variant-numeric:normal;font-feature-settings:normal;text-align:start;writing-mode:lr-tb;text-anchor:start;fill:#eef4d7;stroke-width:0.45853984">beor</tspan></text>
      <text
         transform="scale(1.1905312,0.8399612)"
         id="text12"
         y="27.271593"
         x="17.598738"
         style="font-style:normal;font-variant:normal;font-weight:normal;font-stretch:condensed;font-size:18.34169197px;line-height:1.25;font-family:'Agency FB';-inkscape-font-specification:'Agency FB, Condensed';font-variant-ligatures:normal;font-variant-caps:normal;font-variant-numeric:normal;font-feature-settings:normal;text-align:start;letter-spacing:0px;word-spacing:0px;writing-mode:lr-tb;text-anchor:start;fill:#aa8800;fill-opacity:1;stroke:none;stroke-width:0.45853984;image-rendering:optimizeQuality"
         xml:space="preserve"><tspan
           style="font-style:normal;font-variant:normal;font-weight:normal;font-stretch:condensed;font-size:18.34169197px;font-family:'Agency FB';-inkscape-font-specification:'Agency FB, Condensed';font-variant-ligatures:normal;font-variant-caps:normal;font-variant-numeric:normal;font-feature-settings:normal;text-align:start;writing-mode:lr-tb;text-anchor:start;fill:#aa8800;stroke-width:0.45853984"
           y="27.271593"
           x="17.598738"
           id="tspan10"
           sodipodi:role="line">beor</tspan></text>
      <rect
         style="stroke-width:0.26458332"
         y="11.021605"
         x="11.22532"
         height="25.123335"
         width="3.2072344"
         id="rect44" />
      <rect
         style="fill:#88aa00;stroke-width:0.26458332"
         y="27.057777"
         x="12.027128"
         height="9.0871639"
         width="7.7508163"
         id="rect46" />
      <rect
         style="fill:#f4eed7;stroke-width:0.26458332"
         y="22.900036"
         x="12.92065"
         height="9.0871649"
         width="7.7508163"
         id="rect48" />
      <rect
         y="34.633038"
         x="22.017113"
         height="1.5119048"
         width="30.238094"
         id="rect50"
         style="fill:#aa8800;stroke-width:0.2670992" />
    </g>
    <path
       style="fill:#88aa00;fill-opacity:1;stroke:#668000;stroke-width:0.1;stroke-miterlimit:4;stroke-dasharray:none;stroke-opacity:1"
       d="m 40.77849,92.169246 v -2.77792 h 57.073618 57.073622 v 2.77792 2.777919 H 97.852108 40.77849 Z"
       id="path1386"
       inkscape:connector-curvature="0"
       transform="matrix(0.26458333,0,0,0.26458333,11.22532,11.021601)" />
    <path
       style="fill:#88aa00;fill-opacity:1;stroke:#668000;stroke-width:0.1;stroke-miterlimit:4;stroke-dasharray:none;stroke-opacity:1"
       d="M 41.283566,22.721259 V 0.49790309 h 2.525381 2.525382 V 9.3522116 18.20652 l 1.073287,-0.141624 c 3.197434,-0.421912 11.137727,-0.936001 12.51024,-0.809967 1.778917,0.163353 2.90677,0.709623 3.315008,1.605609 0.182812,0.401229 0.274058,4.048189 0.274058,10.953732 0,9.679092 -0.03125,10.413167 -0.4805,11.289199 -0.62377,1.21633 -1.363318,1.884076 -2.986153,2.696234 -1.824931,0.913299 -4.237888,1.140715 -12.127577,1.142995 l -6.629126,0.0019 z M 56.60851,41.170841 c 1.858302,-0.843697 1.847649,-0.777958 1.847649,-11.40195 v -9.392427 l -1.552274,0.162245 c -0.853751,0.08923 -3.581162,0.162245 -6.060915,0.162245 h -4.508641 v 10.480332 10.480333 l 4.60882,-0.0056 c 3.980637,-0.0048 4.752828,-0.07093 5.665361,-0.485232 z"
       id="path1388"
       inkscape:connector-curvature="0"
       transform="matrix(0.26458333,0,0,0.26458333,11.22532,11.021601)" />
    <path
       style="fill:#88aa00;fill-opacity:1;stroke:#668000;stroke-width:0.1;stroke-miterlimit:4;stroke-dasharray:none;stroke-opacity:1"
       d="M 75.737119,44.707183 C 74.217934,44.468189 73.520985,44.129252 72.990053,43.371242 72.419291,42.556364 72.398415,20.052244 72.9674,18.951948 c 0.732518,-1.416534 1.541451,-1.534032 10.558279,-1.533597 11.317347,5.45e-4 10.789877,-0.378409 10.790503,7.752303 l 3.92e-4,5.101045 -0.83957,0.640371 -0.83957,0.640371 -7.557323,0.06696 -7.557323,0.06696 v 5.050762 5.050763 l 5.871512,0.06779 5.871511,0.06779 V 39.39343 36.863394 h 2.551981 2.55198 l -0.08973,3.004013 c -0.07681,2.571181 -0.162422,3.084323 -0.594214,3.561388 -1.193005,1.318095 -1.497713,1.364534 -9.344507,1.424179 -4.027983,0.03062 -7.899873,-0.03499 -8.604199,-0.145791 z M 89.208783,24.55216 89.139542,20.322147 h -5.808377 -5.808377 l -0.06924,4.230013 -0.06924,4.230014 h 5.946858 5.946859 z"
       id="path1390"
       inkscape:connector-curvature="0"
       transform="matrix(0.26458333,0,0,0.26458333,11.22532,11.021601)" />
    <path
       style="fill:#88aa00;fill-opacity:1;stroke:#668000;stroke-width:0.1;stroke-miterlimit:4;stroke-dasharray:none;stroke-opacity:1"
       d="m 106.54677,44.706898 c -1.51902,-0.238631 -2.21606,-0.577539 -2.74706,-1.335656 -0.34031,-0.485853 -0.39176,-2.096461 -0.39176,-12.262749 0,-7.901857 0.0887,-11.869077 0.27291,-12.213378 0.1501,-0.280469 0.74672,-0.72507 1.32583,-0.988004 0.96465,-0.437988 1.75744,-0.478525 9.45791,-0.483607 9.12922,-0.006 9.56873,0.05138 10.61923,1.386868 0.54335,0.690767 0.54747,0.782313 0.54747,12.164974 0,12.770389 0.0322,12.516579 -1.69351,13.358419 -0.85897,0.419037 -1.74223,0.472944 -8.53428,0.52086 -4.16688,0.0294 -8.15241,-0.03708 -8.85674,-0.147727 z M 120.58054,31.055017 V 20.448416 h -6.06092 -6.06091 v 10.606601 10.606602 h 6.06091 6.06092 z"
       id="path1392"
       inkscape:connector-curvature="0"
       transform="matrix(0.26458333,0,0,0.26458333,11.22532,11.021601)" />
    <path
       style="fill:#668000;fill-opacity:1;stroke:#668000;stroke-width:0.1;stroke-miterlimit:4;stroke-dasharray:none;stroke-opacity:1"
       d="m 134.65954,44.802835 c -0.10417,-0.107215 -0.1894,-6.312674 -0.1894,-13.789907 v -13.59497 h 2.65165 c 2.22322,0 2.65165,0.06305 2.65165,0.390251 0,0.299096 0.19171,0.359309 0.82075,0.257783 1.48453,-0.239601 5.32122,-0.626547 7.9196,-0.798725 3.02259,-0.200287 4.81058,0.136827 5.69118,1.073033 0.55822,0.593481 0.59948,0.854216 0.67625,4.274264 l 0.0818,3.642229 h -2.54401 -2.54402 v -2.939365 -2.939365 l -1.32582,0.15925 c -0.72921,0.08759 -3.00205,0.160238 -5.05076,0.161446 l -3.72494,0.0022 V 32.69652 44.692082 h -0.97311 c -0.53521,0 -1.64322,0.06878 -2.46225,0.152848 -0.81902,0.08407 -1.57437,0.06513 -1.67854,-0.04209 z"
       id="path1394"
       inkscape:connector-curvature="0"
       transform="matrix(0.26458333,0,0,0.26458333,11.22532,11.021601)" />
    <path
       style="fill:#668000;fill-opacity:1;stroke:#668000;stroke-width:0.1;stroke-miterlimit:4;stroke-dasharray:none;stroke-opacity:1"
       d="m 40.77849,92.169246 v -2.77792 h 57.073618 57.073622 v 2.77792 2.777919 H 97.852108 40.77849 Z"
       id="path1396"
       inkscape:connector-curvature="0"
       transform="matrix(0.26458333,0,0,0.26458333,11.22532,11.021601)" />
    <path
       style="fill:#668000;fill-opacity:1;stroke:#668000;stroke-width:0.1;stroke-miterlimit:4;stroke-dasharray:none;stroke-opacity:1"
       d="M 41.283566,22.721259 V 0.49790309 h 2.525381 2.525382 V 9.3727134 18.247524 l 1.452094,-0.15109 c 4.622743,-0.480993 8.687225,-0.713985 11.134678,-0.638283 2.351159,0.07272 2.893284,0.168503 3.49492,0.617458 0.694491,0.518246 0.717105,0.611884 0.914831,3.788072 0.111506,1.79118 0.158573,6.674109 0.104594,10.850954 -0.09566,7.402115 -0.113086,7.620846 -0.68869,8.644996 -0.641268,1.140983 -1.96951,2.145653 -3.620779,2.738726 -1.288019,0.462609 -7.040357,0.82686 -13.23359,0.837982 l -4.608821,0.0083 z m 15.41445,18.372149 c 0.839828,-0.423501 1.203562,-0.793316 1.428217,-1.452094 0.444547,-1.303594 0.456741,-19.478248 0.01295,-19.307951 -0.470331,0.180483 -3.60865,0.315951 -7.953653,0.343326 l -3.851206,0.02426 v 10.480332 10.480333 h 4.618445 c 4.287274,0 4.699243,-0.04074 5.745242,-0.568211 z"
       id="path1398"
       inkscape:connector-curvature="0"
       transform="matrix(0.26458333,0,0,0.26458333,11.22532,11.021601)" />
    <path
       style="fill:#668000;fill-opacity:1;stroke:#668000;stroke-width:0.1;stroke-miterlimit:4;stroke-dasharray:none;stroke-opacity:1"
       d="M 77.143981,44.673144 C 74.392233,44.5066 73.211941,44.034553 72.917626,42.982851 72.811442,42.603415 72.724564,37.15899 72.724564,30.884132 c 0,-11.139539 0.01233,-11.42534 0.52218,-12.108235 0.287199,-0.384672 0.85541,-0.798278 1.26269,-0.919125 1.231698,-0.365464 13.356575,-0.53298 15.884626,-0.21946 3.683241,0.456782 3.881722,0.877055 3.90746,8.273835 l 0.01505,4.326309 -0.867034,0.661319 -0.867033,0.661319 H 84.98428 77.386057 l 0.06836,5.113897 0.06836,5.113897 5.871512,0.06779 5.871511,0.06779 V 39.39343 36.863394 h 2.525382 2.525381 l -0.01561,1.325826 c -0.0086,0.729204 -0.09963,2.165136 -0.202315,3.19096 -0.164844,1.646766 -0.272678,1.93369 -0.92103,2.450668 -0.449129,0.358122 -1.228758,0.641945 -2.007393,0.730788 -1.825894,0.208336 -11.195643,0.282825 -14.026243,0.111508 z M 89.208783,24.55216 89.139542,20.322147 h -5.808377 -5.808377 l -0.06924,4.230013 -0.06924,4.230014 h 5.946858 5.946859 z"
       id="path1400"
       inkscape:connector-curvature="0"
       transform="matrix(0.26458333,0,0,0.26458333,11.22532,11.021601)" />
    <path
       style="fill:#668000;fill-opacity:1;stroke:#668000;stroke-width:0.1;stroke-miterlimit:4;stroke-dasharray:none;stroke-opacity:1"
       d="m 110.10021,44.689412 c -5.03739,-0.142878 -6.00808,-0.402816 -6.37293,-1.706561 -0.10619,-0.379436 -0.19306,-5.871562 -0.19306,-12.20472 0,-12.572501 -0.0723,-11.954548 1.49683,-12.802871 0.67861,-0.366889 1.83784,-0.420268 9.23604,-0.42529 9.18584,-0.0062 9.92898,0.08569 10.77532,1.332841 0.43179,0.636283 0.46216,1.439166 0.45571,12.045937 -0.005,8.153282 -0.091,11.556708 -0.3044,12.045488 -0.60803,1.392438 -1.27548,1.579887 -6.11666,1.717841 -2.43714,0.06945 -6.47673,0.06825 -8.97685,-0.0027 z M 120.58054,31.055017 V 20.448416 h -6.06092 -6.06091 v 10.606601 10.606602 h 6.06091 6.06092 z"
       id="path1402"
       inkscape:connector-curvature="0"
       transform="matrix(0.26458333,0,0,0.26458333,11.22532,11.021601)" />
    <path
       style="fill:#668000;fill-opacity:1;stroke:#668000;stroke-width:0.1;stroke-miterlimit:4;stroke-dasharray:none;stroke-opacity:1"
       d="m 134.63721,44.02827 c -0.0888,-0.537729 -0.16276,-6.745031 -0.16429,-13.794002 l -0.003,-12.81631 h 2.51283 c 1.95621,0 2.55918,0.08281 2.72204,0.373841 0.18397,0.328736 0.55873,0.33067 3.10615,0.01603 7.208,-0.890298 9.82443,-0.779653 11.28566,0.477252 0.68889,0.59255 0.69514,0.626485 0.78973,4.284498 l 0.0953,3.687218 h -2.55346 -2.55347 v -2.940164 -2.940165 l -1.55227,0.162245 c -0.85375,0.08923 -3.12659,0.162245 -5.05076,0.162245 h -3.49849 v 11.995561 11.995562 l -1.19956,0.0023 c -0.65975,0.0013 -1.77907,0.07183 -2.48736,0.156943 l -1.2878,0.154748 -0.16151,-0.977692 z"
       id="path1404"
       inkscape:connector-curvature="0"
       transform="matrix(0.26458333,0,0,0.26458333,11.22532,11.021601)" />
  </g>
</svg>
